<svg xmlns="http://www.w3.org/2000/svg" viewBox="0 0 56 56" fill="none">
  <rect width="56" height="56" rx="12" fill="#3B99FC"/>
  <path d="M17.39 22.02c5.86-5.74 15.36-5.74 21.22 0l.7.69a.72.72 0 0 1 0 1.04l-2.41 2.36a.38.38 0 0 1-.53 0l-.97-.95c-4.09-4-10.72-4-14.81 0l-1.04 1.02a.38.38 0 0 1-.53 0l-2.41-2.36a.72.72 0 0 1 0-1.04l.78-.76zm26.22 4.89 2.15 2.1a.72.72 0 0 1 0 1.04l-9.67 9.47a.76.76 0 0 1-1.06 0l-6.87-6.72a.19.19 0 0 0-.26 0l-6.87 6.72a.76.76 0 0 1-1.06 0L10.3 30.05a.72.72 0 0 1 0-1.04l2.15-2.1a.76.76 0 0 1 1.06 0l6.87 6.72c.07.07.19.07.26 0l6.87-6.72a.76.76 0 0 1 1.06 0l6.87 6.72c.07.07.19.07.26 0l6.87-6.72a.76.76 0 0 1 1.06 0z" fill="#fff"/>
</svg>
